<?xml version="1.0" encoding="UTF-8"?>
<!DOCTYPE svg PUBLIC "-//W3C//DTD SVG 1.1//EN" "http://www.w3.org/Graphics/SVG/1.1/DTD/svg11.dtd">
<!-- Creator: CorelDRAW -->
<svg xmlns="http://www.w3.org/2000/svg" xml:space="preserve" width="180px" height="70px" version="1.1" style="shape-rendering:geometricPrecision; text-rendering:geometricPrecision; image-rendering:optimizeQuality; fill-rule:evenodd; clip-rule:evenodd"
viewBox="0 0 180 70"
 xmlns:xlink="http://www.w3.org/1999/xlink"
 xmlns:xodm="http://www.corel.com/coreldraw/odm/2003">
 <defs>
  <style type="text/css">
   <![CDATA[
    .fil0 {fill:black;fill-rule:nonzero}
   ]]>
  </style>
 </defs>
 <g id="Слой_x0020_1">
  <metadata id="CorelCorpID_0Corel-Layer"/>
  <path id="body1" class="fil0" d="M4.45 5.08l0 61.5 40.1 0 0 -6.25 -32.6 0 0 -55.25 -7.5 0zm50.22 0l0 61.5 7.53 0 0 -61.5 -7.53 0zm23.09 0l0 61.5 7.5 0 0 -19.97 5.79 -6.31 20.68 26.28 10.57 0 -25.75 -31.47 27.34 -30.03 -8.81 0 -29.82 32.72 0 -32.72 -7.5 0 0 0zm68.66 0l-21.66 61.5 8.04 0 7.09 -21.75 22.19 0 7.15 21.75 8.13 0 -20.78 -61.5 -10.16 0 0 0zm4.91 6.06l8.72 27.44 -18.07 0 9.35 -27.44z"/>
 </g>
</svg>
